<?xml version="1.0" encoding="utf-8"?>
<!-- Generator: Adobe Illustrator 26.0.3, SVG Export Plug-In . SVG Version: 6.00 Build 0)  -->
<svg version="1.1" id="Capa_1" xmlns="http://www.w3.org/2000/svg" xmlns:xlink="http://www.w3.org/1999/xlink" x="0px" y="0px"
	 viewBox="0 0 300 300" style="enable-background:new 0 0 300 300;" xml:space="preserve">
<style type="text/css">
	.st0{fill-rule:evenodd;clip-rule:evenodd;fill:#6D5AFA;}
	.st1{fill:#6D5AFA;}
</style>
<g>
	<path class="st0" d="M100.6,0c28.7,68.7-16.7,93.8-41.3,136.4c-8.4,13.9-14.9,29.6-16,49.3c-0.6,10.6,0.2,21,2.3,31
		c9.5,45,46.2,81.2,99.7,83.2c65.8,2.5,111.5-53.9,111.5-123.4C256.8,97.9,186.2,15.6,100.6,0z M104.7,105.4
		c0.7-1.4,1.6-1.8,3.3-1.7c29.5,1.8,58.9,3.5,88.3,5.4c1,0.1,2.5,0.9,2.8,1.6c5.8,14.2,11.5,28.5,17.2,42.7c0.1,0.2,0,0.5,0.1,0.9
		c-42.3-6.2-84.6-12.4-126.7-18.5C94.8,125.6,99.8,115.5,104.7,105.4z M219.5,248.1c-7.4,10.1-15.7,19.5-28.4,25.2
		c-6.3,2.8-12.9,5.1-20,5.7c-5.4,0.4-10.9-0.2-16.3-0.3c-11.2-0.4-22.4-0.4-33.5-1.4c-5.4-0.5-10.6-2.6-15.8-4.3
		c-17.4-5.8-27.5-17.4-34.1-31.7c-0.2-0.5-0.3-1-0.8-2.4c50.7,1.6,100.8,3.2,151.7,4.9C221,245.7,220.3,246.9,219.5,248.1z
		 M213.7,235.1c-1.1,1.7-2.4,2.3-4.6,2.2c-11.3-0.4-22.5-0.7-33.8-1c-21.8-0.6-43.6-1.1-65.4-1.6c-7.2-0.2-14.4-0.5-21.6-0.6
		c-1.7,0-2.7-0.6-3.4-1.9c-5.9-10.9-8.6-22.4-8.3-34.3c0-2,1.4-2,3.1-2.1c10.5-0.3,21-0.6,31.6-0.9c24.4-0.7,48.9-1.5,73.3-2.2
		c12.3-0.4,24.6-0.6,36.8-1c2.1-0.1,2.8,0.4,2.7,2.2c0,3.3,0.2,6.6,0.3,9.9C223.6,214.9,220.2,225.4,213.7,235.1z M63,187.8
		c-1.2-10.8,1.1-21.4,7.1-31.2c2.4-4,5.7-7.6,8.5-11.5c1.1-1.5,2.5-1.8,4.4-1.5c19.3,2.4,38.5,4.7,57.8,7c25,3,50.1,6,75.1,9.1
		c2.4,0.3,4.8,0.9,7.1,0.9c3,0,4.3,1.3,4.9,3.5c1.7,6,3.6,12,5.2,18c0.4,1.3,0.1,2.8,0.1,4.2C176.5,186.7,119.9,187.3,63,187.8z"/>
	<g>
		<path class="st1" d="M129.8,138.1l-0.2-28l10.2-0.1l5.2,20.7l5-20.8l10.1-0.1l0.2,28l-6.6,0l-0.2-21.7l-5.4,21.8l-6.2,0l-5.9-21.7
			l0.2,21.7L129.8,138.1z"/>
	</g>
	<g>
		<path class="st1" d="M131.3,183.3l10.1-28l7.2-0.1l10.8,27.9l-7.5,0.1l-1.4-4.4l-10.4,0.1l-1.4,4.4L131.3,183.3z M141.7,173.7
			l7.2-0.1l-3.7-11.5L141.7,173.7z"/>
	</g>
	<g>
		<path class="st1" d="M134.7,206.5l0-5.4l21.6-0.2l0,5.4l-7.3,0.1l0.2,22.5l-7,0.1l-0.2-22.5L134.7,206.5z"/>
	</g>
	<g>
		<path class="st1" d="M157.7,273.4l-21.8,0.2l-0.2-28l20.6-0.2l0,5.4l-13.6,0.1l0,5.1l12.7-0.1l0,5.4l-12.7,0.1l0,6.6l14.8-0.1
			L157.7,273.4z"/>
	</g>
</g>
</svg>
