<?xml version="1.0" encoding="UTF-8"?>
<svg id="Capa_2" data-name="Capa 2" xmlns="http://www.w3.org/2000/svg" viewBox="0 0 739.72 691.55">
  <defs>
    <style>
      .cls-1 {
        fill: #2800c8;
      }

      .cls-2 {
        fill: #fff;
      }
    </style>
  </defs>
  <g id="Capa_1-2" data-name="Capa 1">
    <ellipse class="cls-2" cx="369.86" cy="345.77" rx="369.86" ry="345.77"/>
    <path class="cls-1" d="M643.95,112.05c148.77,152.07,120.58,397.58-59.26,515.78-164.72,108.27-399.94,76.49-516-79.71-2.6-3.5-13.81-17.24-11.81-20.49,1.13-1.84,30.26-21.04,35.92-25.85,48.62-41.3,93.4-97.93,130.67-148.64,24.92-33.9,46.03-70.91,74.38-102.49,4.77-5.32,23.99-25.83,29.12-27.79,18.22-6.95,14.89,4.31,10.51,15.49-8.71,22.27-32.75,53.85-45.5,76.43-28.88,51.17-84.44,153.07-81.01,209.83,2.32,38.38,26.28,44.48,58.4,25.51,47.7-28.16,128.14-135.01,172.06-144.63,10.94-2.4,18.62-2.92,22.86,7.91,7.47,19.08-2.11,59.67-1.42,81.98,3.32,107.85,108,61.09,154.35,9.02,16.84-18.92,34.73-49.89,43.07-73.22,13.06-36.56,2.47-20.99-20.54-20.97-17.93.02-37.15-10.49-45-25.72-18.88-36.62,8.76-66.71,2.89-101.67-4.41-26.24-45.15-8.33-59.8-1.33-43.92,20.99-78.23,57.16-119.97,79.88-50.02,27.22-63.31,3.11-51.62-42.92,17.47-68.76,67.81-127.01,102.9-187.51,20.49-35.33,19.38-71.45-34.24-50.45-86.25,33.78-194.77,152.63-266.92,213.25-34.31,28.83-79.9,70.67-129.64,44.58-75.23-39.45,6.96-169.48,44.6-212.31C225.43-36.07,492.31-42.95,643.95,112.05Z"/>
  </g>
</svg>